<svg width="264" height="112" viewBox="0 0 264 112" fill="none" xmlns="http://www.w3.org/2000/svg">
<path d="M42.6169 0.21981C38.4483 0.632904 34.1671 1.53421 30.8248 2.73595C15.4275 8.25645 3.44762 22.452 0.518374 38.5253C-0.307823 43.1069 -0.120051 51.8571 0.893918 56.5139C2.73408 64.8885 6.37686 72.4369 11.8223 79.0841C12.9113 80.436 20.0842 87.8342 27.7453 95.5329C42.9924 110.855 43.6684 111.381 47.4989 111.381C51.3295 111.381 52.0055 110.855 67.2526 95.5329C74.9137 87.8342 82.2368 80.2107 83.5136 78.5959C99.324 58.4667 98.5354 32.2162 81.5983 14.3027C71.9469 4.08791 57.3382 -1.16971 42.6169 0.21981ZM53.057 18.8468C55.9862 19.4477 59.7041 20.7996 61.2814 21.8136C62.1452 22.3769 62.1452 22.3769 60.981 24.48C59.8168 26.5454 59.8168 26.5454 60.8308 30.5638C61.3941 32.7795 62.07 34.9201 62.3329 35.3707C63.0465 36.4974 71.6089 38.7131 73.9372 38.3751C75.6272 38.1122 75.6272 38.1122 76.0027 39.5393C77.3547 44.3838 77.4298 49.341 76.2281 54.5235C75.6272 57.1898 75.6272 57.1898 73.6744 57.4152C72.5853 57.5278 69.994 58.1663 67.9661 58.8798C64.9617 59.8562 64.1355 60.3069 63.76 61.0955C63.4971 61.6588 63.2718 64.2125 63.1967 67.4798C63.084 72.8876 63.084 72.8876 60.7556 74.1269C58.3146 75.4037 53.4701 76.8308 51.5173 76.8308C50.5784 76.8308 49.7522 76.2299 47.0858 73.6387C43.3304 69.9583 43.9688 69.9959 38.5985 72.9251C36.9461 73.8265 35.2938 74.5775 34.9182 74.5775C33.2283 74.5775 27.2571 69.8832 24.8161 66.6536C23.1261 64.4378 23.1261 64.4378 25.6047 59.2178C28.0458 54.0353 28.0458 53.9977 27.3698 53.134C25.9427 51.2562 20.948 47.0126 19.6336 46.4868C18.3567 45.9986 18.2065 45.7733 18.2065 44.6467C18.2065 40.8912 21.2109 32.9297 23.727 29.9253C24.8161 28.6485 24.8161 28.6485 26.506 29.2494C28.3462 29.9253 33.8667 31.0144 35.5191 31.0144C36.4204 31.0144 36.9461 30.5638 38.6737 28.1978C42.0535 23.6538 42.354 22.9778 42.0911 21.0625C41.9409 20.1236 41.8282 19.2599 41.8282 19.1097C41.8658 18.2084 49.2264 18.0582 53.057 18.8468Z" fill="#F5F7FA"/>
<path d="M40.9644 38.2249C39.8378 39.2764 34.3549 50.1296 34.3549 51.3313C34.3549 52.4955 43.4806 61.6588 44.9828 62.0344C45.8841 62.2221 47.0858 61.7715 51.7425 59.368C54.8971 57.7531 57.7513 56.1759 58.1268 55.8754C58.5399 55.4999 58.7652 54.7864 58.7652 53.7724C58.7652 51.7444 57.0377 41.7925 56.5495 40.8537C56.3242 40.4406 55.5731 39.9148 54.9347 39.6895C53.6954 39.3139 43.2553 37.3987 42.3539 37.3987C42.1286 37.3987 41.4902 37.7742 40.9644 38.2249Z" fill="#F5F7FA"/>
<path d="M131.996 24.4799C132.034 39.2763 132.034 39.3139 131.17 40.8912C128.391 45.9235 121.969 44.872 120.918 39.2012C120.655 37.8117 120.655 37.8117 116.524 37.6991C114.271 37.624 112.28 37.7366 112.13 37.8868C111.679 38.3375 112.393 42.168 113.257 44.1209C115.059 48.2518 118.777 50.9182 123.697 51.7069C130.494 52.7584 136.278 49.8291 139.019 43.9706C140.071 41.7174 140.071 41.7174 140.183 25.6441C140.296 9.60837 140.296 9.60837 136.127 9.60837C131.996 9.60837 131.996 9.60837 131.996 24.4799Z" fill="#F5F7FA"/>
<path d="M155.843 21.025C152.989 21.7009 150.436 23.128 148.333 25.1935C142.061 31.3149 142.249 41.7926 148.746 47.8764C152.088 51.0309 154.266 51.8196 159.599 51.8196C162.979 51.8196 164.105 51.6694 165.795 50.9934C172.367 48.327 175.86 42.769 175.484 35.5961C175.221 31.2398 174.208 28.611 171.616 25.7944C167.523 21.4005 161.664 19.5979 155.843 21.025ZM163.542 28.7612C167.185 30.6389 168.649 36.2721 166.546 40.403C163.842 45.6982 156.181 46.0738 153.252 41.0415C151.487 38.0371 151.525 34.1315 153.327 31.4275C155.768 27.8223 159.712 26.8083 163.542 28.7612Z" fill="#F5F7FA"/>
<path d="M225.131 20.7245C221.601 21.4005 219.01 22.8651 217.395 25.0809C216.344 26.4704 215.217 29.8878 215.63 30.3009C215.818 30.4511 217.545 30.6765 219.498 30.7891C223.066 31.052 223.066 31.052 223.704 29.9254C224.906 27.7472 228.098 26.6957 230.877 27.597C232.717 28.2354 233.506 29.2494 233.543 31.0896C233.581 32.9297 234.219 32.7044 225.957 33.7935C223.629 34.0939 220.925 34.7323 219.949 35.1454C216.419 36.7227 214.654 39.3891 214.616 43.1445C214.616 48.2144 217.771 51.4816 223.178 51.9323C226.371 52.1951 229.976 51.3314 232.191 49.7541C233.769 48.6275 233.769 48.6275 233.769 49.9419C233.769 51.2938 233.769 51.2938 237.75 51.2938C241.693 51.2938 241.693 51.2938 241.58 39.7271C241.467 28.6861 241.43 28.1228 240.641 26.6581C239.477 24.48 236.811 22.2643 234.445 21.4756C232.492 20.7997 226.971 20.3866 225.131 20.7245ZM233.769 39.6895C233.769 43.107 231.365 45.548 227.723 45.886C222.728 46.3742 220.625 41.9803 224.831 39.9149C226.295 39.2013 230.539 38.2249 232.567 38.1873C233.731 38.1498 233.769 38.1873 233.769 39.6895Z" fill="#F5F7FA"/>
<path d="M189.229 21.2128C184.422 22.3769 180.366 26.921 179.315 32.4415C177.775 40.2153 181.531 47.6511 188.253 50.2048C192.346 51.7069 198.468 50.6554 200.871 47.9515C202.186 46.5244 202.711 46.9 202.411 49.1157C201.697 54.5235 198.28 57.6405 193.435 57.2274C191.107 57.0397 188.215 55.6502 186.938 54.148C186 53.0213 186 53.0213 182.845 54.0729C181.117 54.6737 179.69 55.3497 179.69 55.6126C179.69 56.3637 181.718 58.9174 183.634 60.5698C186.6 63.2361 188.779 63.8746 194.712 63.8746C199.406 63.8746 199.932 63.7995 201.923 62.8606C206.767 60.6073 209.471 56.589 210.109 50.7305C210.335 48.8528 210.447 41.5297 210.41 34.3944C210.297 21.4381 210.297 21.4381 206.73 21.4381C203.162 21.4381 203.162 21.4381 203.049 22.8276C202.974 23.6162 202.861 24.2547 202.749 24.2547C202.674 24.2547 201.885 23.7289 201.021 23.128C200.158 22.4896 198.618 21.7385 197.604 21.4381C195.651 20.8372 191.257 20.7621 189.229 21.2128ZM199.369 29.287C201.923 31.2398 202.974 34.0188 202.448 37.5489C201.585 43.1445 195.013 45.5856 190.281 42.0179C188.441 40.6284 187.427 38.3751 187.427 35.7088C187.389 32.6293 188.628 30.4511 191.145 29.0241C192.759 28.1228 193.36 28.0101 195.501 28.0852C197.566 28.1979 198.242 28.4232 199.369 29.287Z" fill="#F5F7FA"/>
<path d="M132.259 59.0676C132.109 59.1802 131.996 65.9025 131.996 73.9767C131.996 87.4212 131.921 88.7731 131.283 90.1626C130.419 92.0779 129.405 92.9792 127.602 93.3547C124.485 94.1058 121.932 92.3408 121.143 88.9233C120.955 88.022 120.73 87.1958 120.617 87.0832C120.505 87.0081 118.589 86.8954 116.336 86.8954C112.28 86.8954 112.28 86.8954 112.168 88.2849C112.093 89.036 112.393 90.8762 112.844 92.3408C113.557 94.6316 113.97 95.3076 115.961 97.298C118.927 100.265 120.955 101.016 125.988 101.016C130.231 101.053 132.447 100.415 135.188 98.3119C136.202 97.5608 137.517 96.1338 138.118 95.1949C140.146 91.8901 140.258 90.801 140.258 74.0893C140.258 58.8047 140.258 58.8047 136.39 58.8047C134.25 58.8047 132.372 58.9174 132.259 59.0676Z" fill="#F5F7FA"/>
<path d="M214.165 66.2029C214.053 70.2588 214.053 70.2588 211.724 70.3714C209.358 70.4841 209.358 70.4841 209.358 74.0142C209.358 77.5819 209.358 77.5819 211.799 77.5819C214.24 77.5819 214.24 77.5819 214.24 85.7312C214.24 92.9041 214.353 94.1058 214.954 95.4202C216.569 98.9128 218.972 100.19 224.267 100.415C226.408 100.49 228.549 100.453 229.074 100.34C229.976 100.115 230.013 100.002 230.013 96.7346C230.013 93.3547 230.013 93.3547 227.948 93.3547C225.544 93.3547 223.479 92.6036 222.916 91.5521C222.653 91.0639 222.502 88.1722 222.502 84.1915C222.502 77.5819 222.502 77.5819 226.07 77.5819C229.638 77.5819 229.638 77.5819 229.638 74.0142C229.638 70.4465 229.638 70.4465 226.07 70.4465C222.502 70.4465 222.502 70.4465 222.502 66.3156C222.502 62.1846 222.502 62.1846 218.371 62.1846C214.278 62.1846 214.278 62.1846 214.165 66.2029Z" fill="#F5F7FA"/>
<path d="M191.821 70.1837C191.182 70.4466 189.83 71.2352 188.816 71.9487C186.375 73.7138 186.45 73.7138 186.45 71.9863C186.45 70.4466 186.45 70.4466 182.507 70.4466C178.564 70.4466 178.564 70.4466 178.564 85.2806C178.564 100.115 178.564 100.115 182.695 100.115C186.826 100.115 186.826 100.115 186.826 90.9888C186.826 82.2762 186.863 81.8255 187.69 80.3985C188.891 78.2579 190.656 77.2064 192.985 77.2064C195.276 77.2064 197.003 78.1452 197.979 79.9103C198.58 80.9993 198.655 82.3513 198.768 90.6133C198.881 100.077 198.881 100.077 202.636 100.19C204.739 100.265 206.504 100.227 206.579 100.152C206.655 100.077 206.73 95.1574 206.73 89.2238C206.73 76.7557 206.617 76.1173 203.688 72.9252C202.411 71.4981 201.284 70.7094 200.083 70.2963C198.055 69.5828 193.586 69.5453 191.821 70.1837Z" fill="#F5F7FA"/>
<path d="M243.082 70.409C240.266 71.3103 238.726 72.3243 236.66 74.54C230.727 80.8492 230.915 90.9889 237.036 96.7722C243.57 102.931 254.086 102.593 260.169 95.9836C263.136 92.7915 263.962 90.4631 264 85.4684C264 81.788 263.925 81.3374 262.798 78.9714C261.221 75.6291 258.329 72.6248 255.287 71.1226C253.147 70.071 252.433 69.9208 249.053 69.8082C246.049 69.7331 244.772 69.8457 243.082 70.409ZM252.696 78.2204C256.114 80.6238 257.09 85.7688 254.912 89.6744C251.795 95.1574 244.021 95.0447 241.43 89.4867C239.214 84.6797 241.467 78.671 246.049 77.2064C247.927 76.568 251.044 77.0562 252.696 78.2204Z" fill="#F5F7FA"/>
<path d="M145.216 81.6003C145.328 92.3408 145.366 92.8666 146.192 94.7068C147.281 97.1102 149.271 99.0631 151.675 100.152C155.43 101.805 161.552 100.941 163.955 98.3871C165.082 97.1854 165.345 97.2605 165.495 98.8377C165.608 100.227 165.608 100.227 169.363 100.19C173.118 100.152 173.118 100.152 173.231 85.2806C173.306 70.4091 173.306 70.4091 169.363 70.5217C165.42 70.6344 165.42 70.6344 165.345 79.8352C165.232 90.1627 165.007 91.1766 162.453 92.8666C160.763 93.9932 157.871 94.0308 156.106 92.9793C153.665 91.4771 153.402 90.2378 153.402 79.7226C153.402 70.4466 153.402 70.4466 149.234 70.4466C145.103 70.4466 145.103 70.4466 145.216 81.6003Z" fill="#F5F7FA"/>
</svg>
