<svg width="29" height="34" viewBox="0 0 29 34" fill="none" xmlns="http://www.w3.org/2000/svg">
<path d="M12.1662 11.2679C11.7969 11.6088 10 15.1278 10 15.5174C10 15.8949 12.9908 18.8659 13.4831 18.9877C13.7785 19.0486 14.1723 18.9025 15.6985 18.1232C16.7323 17.5996 17.6677 17.0882 17.7908 16.9908C17.9262 16.869 18 16.6377 18 16.3089C18 15.6514 17.4338 12.4246 17.2738 12.1202C17.2 11.9863 16.9538 11.8158 16.7446 11.7428C16.3385 11.621 12.9169 11 12.6215 11C12.5477 11 12.3385 11.1218 12.1662 11.2679Z" fill="#F5F7FA"/>
<path d="M13.0289 0.0671011C11.7545 0.193203 10.4457 0.468335 9.42384 0.835177C4.71653 2.52036 1.05401 6.85368 0.158479 11.7602C-0.0941086 13.1588 -0.0367024 15.8298 0.273291 17.2514C0.835871 19.8078 1.94955 22.112 3.61433 24.1411C3.94729 24.5538 6.1402 26.8122 8.48237 29.1623C13.1438 33.8395 13.3504 34 14.5215 34C15.6926 34 15.8993 33.8395 20.5606 29.1623C22.9028 26.8122 25.1416 24.485 25.532 23.9921C30.3656 17.8475 30.1245 9.83427 24.9465 4.36603C21.9958 1.24787 17.5296 -0.35706 13.0289 0.0671011ZM16.2207 5.75315C17.1163 5.93658 18.2529 6.34927 18.7351 6.6588C18.9992 6.83075 18.9992 6.83075 18.6433 7.47273C18.2873 8.10324 18.2873 8.10324 18.5973 9.32987C18.7696 10.0062 18.9762 10.6597 19.0566 10.7972C19.2747 11.1411 21.8925 11.8175 22.6043 11.7143C23.1209 11.6341 23.1209 11.6341 23.2358 12.0697C23.6491 13.5486 23.672 15.0618 23.3046 16.6438C23.1209 17.4577 23.1209 17.4577 22.5239 17.5265C22.191 17.5609 21.3988 17.7558 20.7788 17.9736C19.8603 18.2716 19.6077 18.4092 19.4929 18.6499C19.4125 18.8219 19.3436 19.6014 19.3207 20.5988C19.2862 22.2496 19.2862 22.2496 18.5744 22.6279C17.8281 23.0177 16.347 23.4533 15.75 23.4533C15.463 23.4533 15.2104 23.2699 14.3952 22.4789C13.2471 21.3554 13.4423 21.3669 11.8005 22.2611C11.2953 22.5362 10.7901 22.7655 10.6753 22.7655C10.1586 22.7655 8.33312 21.3325 7.58684 20.3466C7.07018 19.6702 7.07018 19.6702 7.82794 18.0768C8.57422 16.4948 8.57422 16.4833 8.36756 16.2196C7.93128 15.6464 6.40427 14.351 6.00243 14.1905C5.61207 14.0415 5.56614 13.9727 5.56614 13.6288C5.56614 12.4824 6.48464 10.0521 7.25388 9.13498C7.58684 8.74521 7.58684 8.74521 8.10349 8.92863C8.66607 9.13498 10.3538 9.46743 10.859 9.46743C11.1345 9.46743 11.2953 9.32987 11.8234 8.60764C12.8567 7.22052 12.9486 7.01417 12.8682 6.42952C12.8223 6.14292 12.7878 5.87926 12.7878 5.8334C12.7993 5.55827 15.0496 5.51241 16.2207 5.75315Z" fill="#F5F7FA"/>
</svg>
